<svg width="100" height="106" viewBox="0 0 100 106" fill="none" xmlns="http://www.w3.org/2000/svg">
<path d="M31.5675 105.465H25.2698C25.2908 105.377 25.2938 105.344 25.2998 105.344C26.721 105.21 26.7961 104.3 26.7991 103.388C26.8112 99.4677 26.8081 95.545 26.7991 91.625C26.7991 91.3492 26.718 91.0734 26.7 90.7951C26.6669 90.2358 26.3965 89.893 25.6904 89.875C25.5252 89.8699 25.2548 89.8879 25.2878 89.6611C25.3088 89.5065 25.5462 89.5193 25.7024 89.5193C26.8863 89.5168 28.0701 89.5193 29.2539 89.5193C29.6175 89.5193 29.7617 89.6688 29.8308 89.9833C29.9931 90.7384 29.8128 91.5219 30.1132 92.3518C31.3542 90.125 33.2381 88.9317 36.1285 89.259C38.6464 89.5451 39.9684 90.9317 40.5964 93.1018C40.9269 92.3827 41.1883 91.8028 41.5939 91.2848C42.8769 89.6405 44.6947 89.0116 46.9332 89.259C48.9913 89.4858 50.3644 90.4807 51.0555 92.1533C51.4431 93.0966 51.6354 94.0786 51.6504 95.0811C51.6955 97.9265 51.7255 100.772 51.7766 103.615C51.7977 104.893 51.8127 104.893 53.2218 105.292C53.2519 105.3 53.2639 105.354 53.333 105.465H46.9211C46.9121 105.236 47.1104 105.264 47.2577 105.246C48.108 105.13 48.3213 104.96 48.3814 104.21C48.4265 103.656 48.4235 103.097 48.4144 102.54C48.3634 99.6945 48.5587 96.8466 48.2702 94.0064C48.162 92.9523 47.9848 91.9085 47.3838 90.96C46.7469 89.9601 45.7674 89.5735 44.4724 89.8286C43.0542 90.107 42.1107 90.8801 41.5098 91.9884C41.0801 92.7745 40.8878 93.6043 40.8969 94.4755C40.9239 97.4419 40.9299 100.406 40.9509 103.372C40.9509 103.648 41.0261 103.926 41.0411 104.202C41.0801 104.834 41.4167 105.21 42.1858 105.246C42.297 105.251 42.4202 105.267 42.4593 105.468H36.1886C36.1616 105.316 36.2577 105.269 36.3418 105.267C37.5407 105.228 37.6188 104.803 37.6398 103.986C37.7059 101.321 37.73 98.6533 37.6008 95.9883C37.5467 94.875 37.5227 93.7616 37.2582 92.6636C37.1741 92.3131 37.087 91.96 36.9488 91.625C36.0985 89.5838 33.8059 89.1147 31.931 90.5941C30.6541 91.6018 30.1192 92.9136 30.0952 94.344C30.0411 97.527 30.0682 100.713 30.0862 103.898C30.0922 104.836 30.1613 104.87 31.5705 105.47L31.5675 105.465Z" fill="#6F54A2"/>
<path d="M7.25161 105.474H0.785645C0.86677 105.185 1.08911 105.242 1.25136 105.237C2.33904 105.201 3.07517 104.726 3.53188 103.902C4.36115 102.404 4.89598 100.817 5.46385 99.2419C7.53104 93.5048 9.56817 87.7601 11.5993 82.0127C11.7195 81.6699 11.9118 81.5771 12.2844 81.5849C12.8883 81.5977 13.4922 81.6158 14.0931 81.5797C14.652 81.5462 14.9224 81.7266 15.0847 82.1905C16.1543 85.2575 17.251 88.3167 18.3477 91.376C19.7629 95.3296 21.1781 99.2805 22.6143 103.229C22.7795 103.68 23.059 104.103 23.2933 104.533C23.5788 105.056 24.1556 105.206 24.8197 105.293C24.375 105.577 19.183 105.641 18.3777 105.425C18.3537 105.242 18.519 105.257 18.6482 105.232C19.5496 105.061 19.7449 104.847 19.5255 104.067C18.9847 102.131 18.2065 100.255 17.5545 98.3476C17.4553 98.0589 17.23 97.9971 16.9235 97.9971C13.5613 97.9996 10.1991 98.0022 6.83697 97.9945C6.44036 97.9945 6.24505 98.1388 6.13989 98.4481C5.64413 99.9197 5.15137 101.391 4.90499 102.912C4.86593 103.146 4.87194 103.389 4.87795 103.626C4.90499 104.546 5.2986 104.94 6.35022 105.165C6.60862 105.219 6.91208 105.157 7.25161 105.469V105.474ZM11.8847 82.4766C11.7525 82.7575 11.6924 82.8606 11.6534 82.9689C9.96478 87.6982 8.2882 92.4327 6.58458 97.1594C6.39529 97.6826 6.63866 97.7187 7.12842 97.7187C10.2803 97.7084 13.4321 97.7032 16.584 97.7213C17.1549 97.7239 17.3051 97.6337 17.1158 97.1208C15.935 93.8785 14.7932 90.626 13.6364 87.376C13.0776 85.8013 12.5097 84.2292 11.8847 82.4766Z" fill="#6F54A2"/>
<path d="M68.9844 81.69C69.4441 81.525 69.8827 81.6023 70.3064 81.5972C71.2559 81.5869 72.2083 81.6049 73.1578 81.592C73.5995 81.5869 73.8038 81.7389 73.7827 82.1204C73.7737 82.3188 73.7827 82.5173 73.7827 82.7183C73.7858 89.6615 73.7888 96.6047 73.7948 103.548C73.7948 103.767 73.8158 103.984 73.8338 104.203C73.8909 104.834 74.1734 105.277 75.0237 105.249C75.1348 105.246 75.258 105.264 75.3121 105.465H68.9753C69.0354 105.378 69.0565 105.303 69.0985 105.293C70.3184 104.973 70.3845 104.917 70.4957 103.834C70.5347 103.44 70.5287 103.038 70.5287 102.641C70.5287 96.5532 70.5287 90.4656 70.5287 84.3781C70.5287 83.8807 70.5167 83.3858 70.4536 82.891C70.3785 82.275 70.033 81.9451 69.3179 81.8987C69.2037 81.891 69.0835 81.8807 68.9783 81.6951L68.9844 81.69Z" fill="#6F54A2"/>
<path d="M62.0235 89.2307C64.1778 89.2204 66.0377 89.7591 67.3447 91.3364C68.6487 92.906 68.6637 95.0168 67.3236 96.2616C66.3622 97.1559 65.0702 97.5631 63.7421 97.8827C61.8763 98.3286 59.9593 98.4652 58.0393 98.5734C57.6638 98.594 57.3242 98.6224 57.3783 99.0631C57.5496 100.488 57.7479 101.898 58.3939 103.249C59.9142 106.429 64.1327 105.96 65.9415 103.877C67.1734 102.457 67.7112 100.834 67.8915 99.1018C67.8975 99.0425 67.8855 98.9806 67.9005 98.9239C67.9486 98.7281 67.8164 98.375 68.1349 98.393C68.4323 98.4085 68.3122 98.7487 68.2911 98.9549C68.1619 100.29 67.9005 101.599 67.1974 102.813C65.7252 105.362 63.4056 106.316 60.1516 105.741C57.4625 105.267 55.6627 103.883 54.7312 101.718C53.6856 99.2873 53.5354 96.7796 54.3166 94.2668C55.3141 91.0555 58.1265 89.2436 62.0265 89.2359L62.0235 89.2307ZM57.3453 96.6456C57.3453 96.9832 57.3603 97.3234 57.3423 97.6611C57.3182 98.0734 57.5346 98.2255 58.0063 98.2203C59.5206 98.2049 61.0169 98.0812 62.4561 97.6482C63.5318 97.3234 64.3761 96.7564 64.7907 95.8157C65.5028 94.1998 65.4938 92.5503 64.974 90.9008C64.8268 90.4343 64.4272 90.0916 63.8954 89.8622C62.0655 89.0787 59.7339 89.723 58.7364 91.2823C57.6668 92.9549 57.4054 94.7771 57.3483 96.6405L57.3453 96.6456Z" fill="#6F54A2"/>
<path d="M92.9588 89.2271C95.2543 89.2271 97.1863 89.8482 98.4392 91.6188C99.5419 93.178 99.4698 95.0827 98.2169 96.2424C97.3906 97.0079 96.3029 97.4254 95.1702 97.7398C93.1901 98.2914 91.132 98.4512 89.0708 98.5543C88.4398 98.5852 88.1994 98.7605 88.2746 99.3068C88.4518 100.634 88.6832 101.941 89.2631 103.196C90.7834 106.487 95.1131 105.928 96.8798 103.82C98.1147 102.345 98.6285 100.678 98.7968 98.9048C98.7998 98.8661 98.7938 98.8249 98.8028 98.7862C98.8388 98.6264 98.7217 98.3455 99.0041 98.3532C99.2805 98.3584 99.1904 98.6213 99.1784 98.7914C99.1093 100.034 98.8388 101.235 98.301 102.394C97.8443 103.376 97.1923 104.24 96.2248 104.894C94.3559 106.16 92.2557 106.083 90.1374 105.526C87.9501 104.951 86.4868 103.655 85.6906 101.845C84.5879 99.3378 84.3746 96.7631 85.2459 94.1755C86.3306 90.9461 89.0467 89.2348 92.9588 89.2271ZM96.1467 93.1136C96.1467 92.7167 96.2008 92.3121 96.1347 91.9229C95.9874 91.0415 95.7411 90.2116 94.6384 89.7915C92.6523 89.0338 90.2396 89.91 89.3051 91.7631C88.3437 93.6703 88.1904 95.6857 88.2355 97.727C88.2445 98.1342 88.5149 98.2192 88.9176 98.2141C90.4559 98.2038 91.9733 98.0749 93.4275 97.6187C94.5813 97.2553 95.3805 96.5852 95.7951 95.5801C96.1257 94.7785 96.2068 93.9512 96.1467 93.111V93.1136Z" fill="#6F54A2"/>
<path d="M83.3527 105.469H76.9979C76.9859 105.248 77.1542 105.266 77.2804 105.245C78.2509 105.088 78.4672 104.923 78.4732 104.065C78.4912 99.6912 78.4852 95.3175 78.4822 90.9438C78.4822 90.3227 78.1787 89.9129 77.3885 89.8743C77.2533 89.8665 77.07 89.8588 77.055 89.7196C77.034 89.5186 77.2593 89.5263 77.4005 89.5237C78.7226 89.516 80.0416 89.516 81.3636 89.5212C81.6671 89.5212 81.8354 89.6578 81.8384 89.9284C81.8384 90.1268 81.8474 90.3253 81.8474 90.5237C81.8474 94.8175 81.8474 99.1138 81.8474 103.408C81.8474 103.665 81.8474 103.926 81.8684 104.183C81.9315 104.949 82.1539 105.145 83.0372 105.248C83.1454 105.261 83.2506 105.292 83.3587 105.312C83.3587 105.364 83.3587 105.418 83.3557 105.469H83.3527Z" fill="#6F54A2"/>
<path d="M67.3589 84.7723C67.2657 85.6667 66.7129 86.2929 65.9617 86.7929C64.2461 87.9295 62.266 88.4914 60.1237 88.6615C59.9314 88.6769 59.634 88.7311 59.5979 88.5068C59.5649 88.3032 59.8443 88.3187 60.0185 88.3058C61.5509 88.2053 62.6446 87.4811 63.4919 86.4527C63.9306 85.9192 64.2881 85.3368 64.6817 84.7749C64.826 84.5713 64.9491 84.3574 65.1054 84.1615C65.4179 83.7724 65.7604 83.4064 66.4064 83.6151C67.0434 83.8213 67.3378 84.2363 67.3559 84.7723H67.3589Z" fill="#6F54A2"/>
<path d="M80.1324 87.8458C79.1139 87.8354 78.2245 87.0519 78.2485 86.186C78.2726 85.3123 79.1619 84.5829 80.1985 84.5803C81.2411 84.5803 82.1065 85.3716 82.0764 86.2968C82.0494 87.1215 81.13 87.8535 80.1324 87.8432V87.8458Z" fill="#6F54A2"/>
<path d="M83.3346 75.5577H21.9831C21.3191 75.5577 20.7812 75.0964 20.7812 74.5268V37.3133C20.7812 22.2362 35.0803 9.97083 52.6574 9.97083C70.2344 9.97083 84.5335 22.2362 84.5335 37.3133V74.5268C84.5335 75.0964 83.9956 75.5577 83.3316 75.5577H83.3346ZM23.188 73.4959H82.1328V37.3133C82.1328 23.3727 68.9124 12.0327 52.6604 12.0327C36.4083 12.0327 23.188 23.3727 23.188 37.3133V73.4959Z" fill="#88D0C4"/>
<path d="M52.7774 34.9465C52.5461 34.9465 52.3147 34.8717 52.1405 34.7197L46.9935 30.3048C45.356 28.9002 45.356 26.6115 46.9935 25.2069C48.583 23.8435 51.1369 23.8023 52.7865 25.0832C54.436 23.9002 56.9028 23.975 58.4502 25.3023C60.0877 26.7069 60.0877 28.9955 58.4502 30.4001L53.4144 34.7197C53.2371 34.8717 53.0088 34.9465 52.7774 34.9465ZM49.9651 25.6992C49.3492 25.6992 48.7362 25.9002 48.2675 26.2997C47.333 27.1012 47.333 28.4079 48.2675 29.2094L52.7774 33.0754L57.1762 29.3022C58.1107 28.5007 58.1107 27.194 57.1762 26.3925C56.2388 25.5909 54.7184 25.5909 53.784 26.3925L53.4174 26.7069C53.0659 27.0084 52.495 27.0084 52.1435 26.7069L51.6657 26.2971C51.197 25.895 50.5841 25.694 49.9681 25.694L49.9651 25.6992Z" fill="#88D0C4"/>
<path d="M52.7751 15.4072C38.6834 15.4072 27.2178 25.2422 27.2178 37.3271L27.1006 70.1721H78.2153L78.3325 37.3271C78.3325 25.2396 66.8669 15.4047 52.7751 15.4047V15.4072ZM44.6146 42.8941C45.6812 42.2678 46.6908 41.675 48.7369 41.675C50.7831 41.675 51.7896 42.2678 52.8593 42.8941C53.977 43.5513 55.2419 44.2935 57.6607 44.2935C59.5325 44.2935 60.7134 43.8477 61.6718 43.3399V45.6827H43.7823V43.3657C44.0737 43.2136 44.3502 43.0513 44.6176 42.8941H44.6146ZM43.7793 42.1338V39.6003C43.7793 39.2343 44.1278 38.9353 44.5545 38.9353H60.8936C61.3203 38.9353 61.6688 39.2343 61.6688 39.6003V42.108C60.6413 42.7111 59.6317 43.2626 57.6577 43.2626C55.6836 43.2626 54.605 42.6698 53.5353 42.0435C52.4176 41.3863 51.1526 40.6441 48.7339 40.6441C46.3152 40.6441 45.0502 41.3889 43.9325 42.0435C43.8784 42.0745 43.8274 42.1054 43.7763 42.1338H43.7793ZM64.0125 47.2291C64.6975 47.2291 65.2534 47.7059 65.2534 48.2935V53.4429C64.9289 53.497 64.5893 53.5228 64.2168 53.5228C62.2247 53.5228 61.2692 52.7573 60.1665 51.8708C59.0398 50.9661 57.7628 49.9404 55.296 49.9404C52.8292 49.9404 51.5523 50.9661 50.4255 51.8708C49.3228 52.7573 48.3673 53.5228 46.3753 53.5228C44.3832 53.5228 43.4277 52.7573 42.325 51.8708C41.6941 51.3656 41.0451 50.8502 40.1918 50.4764V48.2935C40.1918 47.7059 40.7476 47.2291 41.4327 47.2291H64.0094H64.0125ZM41.5048 52.6259C42.6315 53.5305 43.9085 54.5563 46.3753 54.5563C48.8421 54.5563 50.119 53.5305 51.2458 52.6259C52.3485 51.7393 53.304 50.9739 55.296 50.9739C57.2881 50.9739 58.2436 51.7393 59.3463 52.6259C60.473 53.5305 61.75 54.5563 64.2198 54.5563C64.5833 54.5563 64.9259 54.5331 65.2564 54.4893V57.2779H40.1948V51.6749C40.6635 51.9507 41.0781 52.2831 41.5048 52.6259ZM67.0652 58.8243C68.0176 58.8243 68.7898 59.6026 68.7898 60.5614V63.3835C67.7863 62.6258 66.5604 61.917 64.5082 61.917C62.0414 61.917 60.7614 62.9428 59.6347 63.8474C58.532 64.734 57.5765 65.4995 55.5845 65.4995C53.5924 65.4995 52.6369 64.734 51.5342 63.8474C50.4075 62.9428 49.1305 61.917 46.6637 61.917C44.1969 61.917 42.92 62.9428 41.7932 63.85C40.6905 64.7366 39.7351 65.5021 37.743 65.5021C37.3554 65.5021 36.9948 65.4686 36.6553 65.4093V60.5614C36.6553 59.6052 37.4305 58.8243 38.38 58.8243H67.0622H67.0652ZM37.743 66.533C40.2098 66.533 41.4868 65.5072 42.6135 64.6026C43.7162 63.716 44.6717 62.9505 46.6637 62.9505C48.6558 62.9505 49.6113 63.716 50.714 64.6026C51.8407 65.5072 53.1177 66.533 55.5845 66.533C58.0513 66.533 59.3282 65.5072 60.455 64.6026C61.5577 63.716 62.5131 62.9505 64.5052 62.9505C66.4973 62.9505 67.4497 63.716 68.5555 64.6026C68.6306 64.6619 68.7087 64.7237 68.7868 64.7856V69.1438H36.6523V66.4608C36.9978 66.5098 37.3584 66.5356 37.74 66.5356L37.743 66.533ZM77.0165 69.1438H70.5926V60.5614C70.5926 58.7521 69.0091 57.2779 67.0652 57.2779H67.0561V48.2935C67.0561 46.8528 65.689 45.6827 64.0125 45.6827H63.4716V39.6003C63.4716 38.3812 62.3148 37.389 60.8936 37.389H44.5545C43.1333 37.389 41.9765 38.3812 41.9765 39.6003V45.6827H41.4357C39.7561 45.6827 38.392 46.8554 38.392 48.2935V57.2779H38.383C36.436 57.2779 34.8555 58.7496 34.8555 60.5614V69.1438H28.3084L28.4226 37.3297C28.4226 25.8092 39.3475 16.4382 52.7781 16.4382C66.2088 16.4382 77.1337 25.8092 77.1337 37.3271L77.0195 69.1412L77.0165 69.1438Z" fill="#6F54A2"/>
<path d="M9.70044 28.0474L13.6425 30.6556L13.8198 30.1272L12.6269 29.3618L13.1768 27.7149L14.6581 27.6195L14.8474 27.0474L9.89274 27.4778L9.70344 28.0499L9.70044 28.0474ZM10.3314 27.8953L12.6209 27.7561L12.1823 29.0757L10.3284 27.9082V27.8979L10.3314 27.8953Z" fill="#6F54A2"/>
<path d="M15.616 21.1583L15.1533 20.9598L14.1828 22.6222L12.8667 22.0577L13.9754 20.1609L13.5097 19.9624L12.1216 22.3412L16.259 24.117L16.5384 23.635L14.6455 22.8206L15.616 21.1583Z" fill="#6F54A2"/>
<path d="M18.2548 20.0403L14.8115 18.1202L14.469 18.5713L18.348 20.7336L20.0516 18.4862L19.6159 18.244L18.2548 20.0403Z" fill="#6F54A2"/>
<path d="M18.0471 14.2639L20.4268 18.0139L20.8384 17.5912L20.1053 16.4778L21.3823 15.1608L22.7824 15.5861L23.2271 15.1273L18.4918 13.8052L18.0471 14.2639ZM18.6961 14.3438L20.8564 15.0088L19.8319 16.0629L18.6841 14.3516L18.6931 14.3438H18.6961Z" fill="#6F54A2"/>
<path d="M22.7166 10.0496L24.5013 13.3459L24.4893 13.3536L20.7455 11.6629L20.2588 12.0624L24.6516 13.949L25.1684 13.5263L23.1883 9.66296L22.7166 10.0496Z" fill="#6F54A2"/>
<path d="M29.3446 8.1402C29.1583 7.92113 28.9419 7.73556 28.6925 7.58092C28.4432 7.42629 28.1757 7.32062 27.8903 7.26134C27.6049 7.20206 27.3074 7.19691 27.0009 7.24588C26.6945 7.29484 26.388 7.41598 26.0875 7.6067C25.7841 7.79742 25.5587 8.00875 25.4115 8.24329C25.2613 8.47782 25.1771 8.72266 25.1591 8.97266C25.1381 9.22524 25.1771 9.47523 25.2733 9.72523C25.3694 9.97523 25.5106 10.2098 25.6969 10.4263C25.8832 10.6453 26.0996 10.8309 26.3489 10.9855C26.5983 11.1402 26.8657 11.2458 27.1512 11.3051C27.4366 11.3644 27.7311 11.3695 28.0375 11.318C28.344 11.2665 28.6475 11.1453 28.9479 10.9572C29.2514 10.7665 29.4768 10.5551 29.627 10.3232C29.7772 10.0886 29.8613 9.84636 29.8824 9.59379C29.9034 9.34121 29.8644 9.09122 29.7682 8.84122C29.6721 8.59122 29.5308 8.35669 29.3446 8.1402ZM29.1432 10.1144C29.0411 10.2948 28.8758 10.4572 28.6445 10.6041C28.4131 10.7484 28.1818 10.836 27.9504 10.8644C27.719 10.8927 27.4937 10.8773 27.2804 10.8206C27.067 10.7613 26.8687 10.6685 26.6855 10.5448C26.5022 10.4185 26.3399 10.2768 26.2047 10.1144C26.0665 9.95203 25.9553 9.77935 25.8712 9.58863C25.7871 9.39791 25.745 9.20977 25.745 9.01647C25.745 8.82318 25.7961 8.63761 25.8982 8.4572C26.0004 8.27679 26.1657 8.11442 26.397 7.96752C26.6284 7.82319 26.8597 7.73556 27.0911 7.70721C27.3224 7.67886 27.5448 7.69432 27.7611 7.75102C27.9744 7.8103 28.1727 7.90308 28.356 8.02679C28.5393 8.15308 28.7016 8.29741 28.8368 8.4572C28.975 8.61957 29.0862 8.79483 29.1703 8.98297C29.2544 9.17111 29.2965 9.36183 29.2965 9.55513C29.2965 9.74843 29.2454 9.93399 29.1432 10.1144Z" fill="#6F54A2"/>
<path d="M34.8165 7.21224C34.7474 7.13492 34.6843 7.05245 34.6242 6.9674C34.5641 6.88235 34.504 6.7973 34.4439 6.7174C34.3778 6.63751 34.3117 6.56534 34.2396 6.49576C34.1675 6.42617 34.0924 6.37205 34.0083 6.32823C33.9241 6.28442 33.828 6.25865 33.7258 6.24834C33.6207 6.23803 33.5035 6.24834 33.3713 6.287L33.3653 6.27669C33.5816 6.10143 33.6958 5.90813 33.7108 5.69422C33.7258 5.4803 33.6657 5.26896 33.5335 5.05763C33.3563 4.77413 33.1039 4.60145 32.7794 4.54217C32.4549 4.48289 32.0943 4.54217 31.6977 4.72516L29.7417 5.62721L31.9321 9.12202L32.4849 8.86686L31.5475 7.37461L32.8996 6.75091C33.0348 6.68905 33.155 6.65555 33.2571 6.65297C33.3593 6.65039 33.4554 6.66586 33.5426 6.69936C33.6297 6.73287 33.7078 6.78441 33.7799 6.84884C33.852 6.91585 33.9211 6.98802 33.9902 7.06534C34.0624 7.14008 34.1285 7.22255 34.1885 7.3076C34.2486 7.39265 34.3027 7.47513 34.3538 7.54987C34.4049 7.62461 34.459 7.68904 34.51 7.74574C34.5611 7.80244 34.6182 7.83852 34.6813 7.85657L35.2973 7.57306C35.2011 7.54214 35.117 7.49317 35.0389 7.43131C34.9607 7.36946 34.8886 7.29729 34.8195 7.21997L34.8165 7.21224ZM33.0498 6.01896C32.9927 6.10658 32.9116 6.18648 32.8034 6.25607C32.6983 6.32565 32.5811 6.39009 32.4519 6.44936L31.2981 6.98029L30.5349 5.76123L31.908 5.12721C32.1694 5.00866 32.3918 4.97515 32.5781 5.03185C32.7644 5.08855 32.9116 5.20453 33.0228 5.38237C33.1039 5.50865 33.1399 5.62463 33.1399 5.7303C33.1399 5.83339 33.1069 5.93133 33.0498 6.01896Z" fill="#6F54A2"/>
<path d="M40.8161 3.42881L38.7459 3.98808L38.3042 2.78449L40.6628 2.1479L40.5066 1.72522L37.55 2.5216L38.9382 6.30764L39.5391 6.14527L38.9021 4.41333L40.9693 3.85406L40.8161 3.42881Z" fill="#6F54A2"/>
<path d="M46.694 1.87905C46.5497 1.64709 46.3634 1.45122 46.1381 1.28885C45.9128 1.12906 45.6483 1.0105 45.3479 0.940916C45.0474 0.871329 44.7109 0.863597 44.3443 0.91772C43.9778 0.971844 43.6653 1.08009 43.4099 1.23473C43.1545 1.38936 42.9532 1.57751 42.806 1.794C42.6587 2.01049 42.5626 2.25018 42.5205 2.51049C42.4785 2.77079 42.4845 3.03368 42.5386 3.30171C42.5926 3.56718 42.6918 3.81717 42.839 4.04913C42.9832 4.28109 43.1695 4.47696 43.3949 4.63933C43.6202 4.8017 43.8846 4.9151 44.1851 4.98469C44.4856 5.05427 44.8221 5.05943 45.1886 5.0053C45.5552 4.95118 45.8677 4.84551 46.1231 4.69087C46.3785 4.53881 46.5798 4.35067 46.727 4.13418C46.8742 3.91511 46.9704 3.678 47.0124 3.41512C47.0545 3.15481 47.0485 2.89193 46.9944 2.62646C46.9403 2.361 46.8382 2.11101 46.694 1.87905ZM46.4055 3.31718C46.3845 3.51821 46.3244 3.70377 46.2252 3.87645C46.1261 4.04913 45.9849 4.19861 45.8016 4.32232C45.6183 4.44603 45.3839 4.53108 45.1015 4.57232C44.8191 4.61613 44.5667 4.60582 44.3443 4.54397C44.122 4.48211 43.9297 4.38418 43.7674 4.25016C43.6052 4.11614 43.476 3.95892 43.3738 3.77594C43.2747 3.59295 43.2026 3.40481 43.1635 3.20635C43.1214 3.01048 43.1124 2.80945 43.1335 2.611C43.1545 2.40997 43.2146 2.22441 43.3137 2.05173C43.4129 1.87905 43.5541 1.72957 43.7374 1.60586C43.9207 1.48215 44.155 1.39967 44.4375 1.35586C44.7199 1.31205 44.9723 1.32236 45.1946 1.38421C45.417 1.44607 45.6093 1.544 45.7715 1.67802C45.9338 1.81204 46.063 1.96926 46.1651 2.15224C46.2643 2.33523 46.3364 2.52337 46.3755 2.72182C46.4175 2.9177 46.4265 3.11873 46.4055 3.31976V3.31718Z" fill="#6F54A2"/>
<path d="M52.3783 3.85562C52.3572 3.76026 52.3422 3.66232 52.3332 3.56181C52.3242 3.46129 52.3122 3.36336 52.3002 3.268C52.2821 3.17264 52.2611 3.07985 52.231 2.99223C52.204 2.9046 52.1619 2.8247 52.1079 2.75512C52.0538 2.68553 51.9817 2.62367 51.8945 2.57471C51.8074 2.52574 51.6932 2.49223 51.555 2.47419V2.46388C51.8374 2.38656 52.0418 2.2577 52.1619 2.07213C52.2821 1.88657 52.3392 1.67265 52.3272 1.43297C52.3122 1.1108 52.174 0.860807 51.9126 0.685551C51.6512 0.507718 51.2966 0.427822 50.8459 0.443286L48.6255 0.51545L48.8028 4.47932L49.4307 4.45871L49.3556 2.76543L50.888 2.71388C51.0412 2.70872 51.1674 2.72419 51.2606 2.76027C51.3537 2.79635 51.4318 2.84532 51.4919 2.90718C51.552 2.96903 51.5971 3.04377 51.6271 3.1314C51.6572 3.21903 51.6842 3.30923 51.7052 3.40459C51.7323 3.49995 51.7503 3.59789 51.7593 3.6984C51.7683 3.79892 51.7773 3.8917 51.7864 3.97933C51.7954 4.06696 51.8074 4.14428 51.8254 4.21386C51.8434 4.28345 51.8765 4.33757 51.9216 4.37881L52.6216 4.35561C52.5525 4.29118 52.4985 4.21644 52.4624 4.12881C52.4263 4.04118 52.3963 3.95098 52.3753 3.85562H52.3783ZM51.4048 2.11595C51.3086 2.17265 51.1944 2.21388 51.0622 2.2345C50.93 2.2577 50.7918 2.27059 50.6476 2.27574L49.3406 2.31955L49.2775 0.938126L50.8369 0.88658C51.1314 0.876271 51.3477 0.932971 51.4859 1.0541C51.6241 1.17524 51.6962 1.33503 51.7052 1.53606C51.7112 1.68039 51.6872 1.79894 51.6331 1.89172C51.579 1.98451 51.5009 2.05925 51.4048 2.11595Z" fill="#6F54A2"/>
<path d="M56.5491 4.58536L59.7911 5.00803L59.8662 4.56732L57.2461 4.22711L57.4865 2.87146L59.9113 3.18589L59.9894 2.74517L57.5646 2.43074L57.784 1.18333L60.386 1.52096L60.4641 1.08282L57.2401 0.66272L56.5491 4.58536Z" fill="#6F54A2"/>
<path d="M65.193 2.11281L62.8073 5.11536L62.7953 5.1102L62.567 1.48911L61.918 1.33447L62.2815 5.53804L62.9696 5.7004L65.824 2.2623L65.193 2.11281Z" fill="#6F54A2"/>
<path d="M67.8313 3.38636L70.2621 4.2446L70.4604 3.83481L67.4467 2.77039L65.686 6.43787L68.7177 7.51002L68.916 7.09766L66.4642 6.23169L67.0742 4.96366L69.3397 5.7652L69.538 5.35283L67.2695 4.55129L67.8313 3.38636Z" fill="#6F54A2"/>
<path d="M74.2095 5.5358L72.2775 4.59509L69.991 8.04351L70.5378 8.30897L71.5143 6.83476L72.8484 7.48424C72.9836 7.54867 73.0797 7.61826 73.1368 7.693C73.1939 7.76774 73.23 7.84248 73.242 7.92238C73.254 8.00227 73.248 8.08732 73.2209 8.17237C73.1939 8.26 73.1608 8.34763 73.1188 8.44041C73.0827 8.53319 73.0377 8.6234 72.9836 8.7136C72.9295 8.80123 72.8784 8.88628 72.8333 8.9636C72.7883 9.04092 72.7492 9.11308 72.7222 9.18267C72.6951 9.24968 72.6891 9.31154 72.7041 9.36566L73.3141 9.66205C73.2961 9.577 73.2961 9.48937 73.3171 9.39916C73.3381 9.30896 73.3682 9.21875 73.4102 9.12855C73.4523 9.03834 73.4974 8.94814 73.5514 8.85793C73.6055 8.77031 73.6566 8.6801 73.7047 8.59247C73.7498 8.50227 73.7858 8.41464 73.8159 8.32701C73.8459 8.23938 73.8609 8.15433 73.8579 8.06928C73.8579 7.98423 73.8309 7.90176 73.7858 7.82186C73.7407 7.73939 73.6656 7.66207 73.5605 7.58475L73.5665 7.57444C73.8549 7.63887 74.1073 7.61826 74.3236 7.51516C74.54 7.41207 74.7202 7.25743 74.8585 7.0461C75.0447 6.76517 75.0808 6.49198 74.9666 6.22394C74.8525 5.9559 74.6001 5.72652 74.2095 5.5358ZM74.2635 6.8528C74.1794 6.97909 74.0863 7.06672 73.9841 7.12084C73.879 7.17496 73.7708 7.20331 73.6536 7.20847C73.5364 7.21362 73.4162 7.19558 73.29 7.15434C73.1639 7.11568 73.0377 7.06414 72.9115 7.00228L71.7727 6.44817L72.5689 5.24457L73.924 5.90436C74.1794 6.03064 74.3296 6.17497 74.3717 6.33992C74.4138 6.50487 74.3777 6.67497 74.2635 6.85022V6.8528Z" fill="#6F54A2"/>
<path d="M77.0223 9.39566L77.1996 7.15341L76.6016 6.77197L76.4334 9.58895L75.3066 10.8905L75.8114 11.2126L76.9382 9.90854L80.0179 8.94978L79.444 8.58639L77.0223 9.39566Z" fill="#6F54A2"/>
<path d="M86.042 14.1338L82.142 15.3812L84.0679 12.2189L83.497 11.6648L80.0327 14.2936L80.4263 14.6751L83.3108 12.4895L83.3198 12.4973L81.4118 15.6312L81.7664 15.9766L85.6273 14.7369L85.6363 14.7447L82.7519 16.9328L83.1485 17.3142L86.6128 14.6854L86.042 14.1338Z" fill="#6F54A2"/>
<path d="M89.0797 19.9534C89.272 19.7498 89.4132 19.5281 89.5004 19.2859C89.5875 19.0462 89.6115 18.791 89.5695 18.5256C89.5304 18.2601 89.4072 17.9921 89.2059 17.7214C89.0046 17.4508 88.7703 17.2446 88.5058 17.1055C88.2414 16.9637 87.962 16.8761 87.6706 16.8452C87.3791 16.8117 87.0847 16.8297 86.7902 16.8967C86.4927 16.9637 86.2133 17.0694 85.9489 17.2163C85.6845 17.3632 85.4531 17.5384 85.2608 17.7421C85.0685 17.9457 84.9273 18.1673 84.8402 18.4096C84.7531 18.6518 84.732 18.9044 84.7741 19.1673C84.8162 19.4328 84.9394 19.6982 85.1407 19.9688C85.342 20.2395 85.5763 20.4456 85.8407 20.5874C86.1051 20.7291 86.3816 20.8168 86.673 20.8503C86.9645 20.8838 87.2589 20.8657 87.5534 20.7987C87.8508 20.7317 88.1303 20.626 88.3947 20.4791C88.6591 20.3322 88.8904 20.157 89.0827 19.9534H89.0797ZM87.4212 20.2781C87.1958 20.34 86.9735 20.3632 86.7481 20.3529C86.5228 20.3425 86.3095 20.2858 86.1051 20.1879C85.9008 20.09 85.7206 19.9379 85.5673 19.7317C85.4111 19.5255 85.3239 19.3219 85.3059 19.1209C85.2879 18.9199 85.3179 18.7292 85.3991 18.5513C85.4802 18.3709 85.6004 18.206 85.7566 18.0565C85.9128 17.907 86.0901 17.7781 86.2854 17.6699C86.4807 17.5616 86.6911 17.4766 86.9164 17.4173C87.1417 17.3555 87.3641 17.3323 87.5894 17.3426C87.8148 17.3529 88.0281 17.4096 88.2324 17.5075C88.4367 17.6055 88.617 17.7575 88.7733 17.9663C88.9295 18.175 89.0166 18.3761 89.0347 18.5771C89.0527 18.7781 89.0226 18.9688 88.9415 19.1467C88.8604 19.3271 88.7402 19.4895 88.584 19.6415C88.4277 19.7936 88.2505 19.9199 88.0552 20.0281C87.8599 20.1364 87.6495 20.2214 87.4242 20.2807L87.4212 20.2781Z" fill="#6F54A2"/>
<path d="M90.0828 25.328C90.3862 25.2971 90.6837 25.2275 90.9691 25.1141C91.2546 25.0007 91.513 24.8563 91.7383 24.6785C91.9636 24.5007 92.1409 24.2971 92.2671 24.0703C92.3933 23.8435 92.4594 23.5935 92.4624 23.328C92.4684 23.06 92.3933 22.779 92.2371 22.4878C92.0808 22.1966 91.8855 21.962 91.6452 21.7894C91.4078 21.6167 91.1464 21.4956 90.8639 21.4285C90.5815 21.3615 90.2871 21.3409 89.9836 21.3718C89.6801 21.4028 89.3827 21.4724 89.0972 21.5858C88.8088 21.6992 88.5534 21.8435 88.328 22.0213C88.1027 22.1992 87.9254 22.4028 87.7992 22.6296C87.673 22.8564 87.6099 23.1038 87.6069 23.3718C87.6069 23.6399 87.679 23.9182 87.8353 24.2094C87.9915 24.5007 88.1868 24.7352 88.4242 24.9079C88.6616 25.0806 88.92 25.2017 89.2024 25.2687C89.4848 25.3357 89.7793 25.3563 90.0828 25.3254V25.328ZM89.3646 24.7893C89.1453 24.7507 88.941 24.6708 88.7547 24.5471C88.5684 24.4259 88.4152 24.2507 88.298 24.029C88.1808 23.8074 88.1267 23.5935 88.1418 23.3924C88.1568 23.1914 88.2169 23.0084 88.328 22.8383C88.4392 22.6708 88.5834 22.5213 88.7637 22.3925C88.944 22.2636 89.1393 22.1579 89.3526 22.0754C89.566 21.993 89.7883 21.9337 90.0196 21.9028C90.251 21.8693 90.4764 21.8744 90.6957 21.9131C90.915 21.9517 91.1193 22.0316 91.3056 22.1553C91.4919 22.2765 91.6452 22.4517 91.7623 22.6734C91.8825 22.8976 91.9336 23.1089 91.9186 23.31C91.9036 23.511 91.8435 23.6966 91.7323 23.8641C91.6211 24.0316 91.4769 24.1811 91.2966 24.31C91.1163 24.4388 90.918 24.5445 90.7077 24.627C90.4944 24.7094 90.272 24.7687 90.0407 24.7996C89.8093 24.8332 89.584 24.828 89.3616 24.7893H89.3646Z" fill="#6F54A2"/>
<path d="M94.2295 27.2941L93.7698 25.9617L89.335 27.0854L89.7947 28.4178C89.9058 28.74 90.0531 29.0055 90.2394 29.2168C90.4256 29.4281 90.642 29.5828 90.8914 29.6833C91.1407 29.7838 91.4202 29.8353 91.7357 29.8353C92.0512 29.8353 92.3907 29.7864 92.7632 29.6936C93.4753 29.5132 93.9501 29.2168 94.1874 28.807C94.4248 28.3972 94.4398 27.8921 94.2325 27.2941H94.2295ZM93.8449 28.1086C93.8239 28.2915 93.7578 28.4513 93.6466 28.5931C93.5354 28.7323 93.3822 28.8534 93.1899 28.9513C92.9976 29.0493 92.7662 29.1317 92.5018 29.1987C92.2284 29.2683 91.988 29.3018 91.7777 29.3018C91.5674 29.3018 91.3871 29.2812 91.2309 29.2374C91.0746 29.1936 90.9454 29.1343 90.8373 29.057C90.7291 28.9797 90.639 28.8972 90.5669 28.8096C90.4947 28.722 90.4377 28.6343 90.3956 28.5518C90.3565 28.4668 90.3235 28.3972 90.3055 28.3379L90.008 27.4797L93.4513 26.606L93.7518 27.4771C93.8329 27.7168 93.8659 27.9281 93.8449 28.1111V28.1086Z" fill="#6F54A2"/>
</svg>
